<svg width="2666" height="890" viewBox="0 0 2666 890" fill="none" xmlns="http://www.w3.org/2000/svg">
<g clip-path="url(#clip0_243_8)">
<path d="M411 0C302.041 0.144962 197.585 43.4848 120.539 120.516C43.4932 197.547 0.14499 301.983 0 410.921V862.605C0 869.871 2.88678 876.839 8.02528 881.976C13.1638 887.114 20.1331 890 27.4 890H794.6C801.867 890 808.836 887.114 813.975 881.976C819.113 876.839 822 869.871 822 862.605V410.921C821.855 301.983 778.507 197.547 701.461 120.516C624.415 43.4848 519.959 0.144962 411 0ZM185.224 835.211L316.744 616.053H504.708L636.228 835.211H185.224ZM328.8 561.263V410.921C328.8 389.124 337.46 368.221 352.876 352.808C368.291 337.396 389.199 328.737 411 328.737C432.801 328.737 453.709 337.396 469.124 352.808C484.54 368.221 493.2 389.124 493.2 410.921V561.263H328.8ZM657.6 763.436L548 580.987V410.921C548 374.593 533.566 339.754 507.874 314.066C482.181 288.378 447.335 273.947 411 273.947C374.665 273.947 339.819 288.378 314.126 314.066C288.434 339.754 274 374.593 274 410.921V580.987L164.4 763.436V410.921C164.4 345.531 190.381 282.82 236.627 236.582C282.874 190.344 345.598 164.368 411 164.368C476.402 164.368 539.126 190.344 585.372 236.582C631.619 282.82 657.6 345.531 657.6 410.921V763.436ZM767.2 835.211H712.4V410.921C712.4 331 680.645 254.353 624.122 197.84C567.599 141.327 490.936 109.579 411 109.579C331.064 109.579 254.401 141.327 197.878 197.84C141.355 254.353 109.6 331 109.6 410.921V835.211H54.8V410.921C54.8 316.469 92.3281 225.886 159.129 159.098C225.929 92.3104 316.53 54.7895 411 54.7895C505.47 54.7895 596.071 92.3104 662.871 159.098C729.672 225.886 767.2 316.469 767.2 410.921V835.211Z" fill="black"/>
<path d="M1472.83 761V162H1601V761H1472.83ZM1096 761V162H1224.17V761H1096ZM1147.27 520.544L1148.12 404.167H1538.62V520.544H1147.27Z" fill="black"/>
<path d="M1910.08 770C1872.46 770 1838.54 759.724 1808.33 739.171C1778.11 718.618 1754.18 690.643 1736.5 655.247C1718.83 619.851 1710 579.316 1710 533.644C1710 487.971 1718.83 447.722 1736.5 412.896C1754.75 377.5 1779.25 349.811 1810.04 329.829C1840.82 309.276 1875.88 299 1915.21 299C1937.44 299 1957.68 302.425 1975.92 309.276C1994.73 315.556 2010.98 324.406 2024.66 335.824C2038.91 347.241 2050.88 360.373 2060.57 375.216C2070.26 390.06 2077.11 406.045 2081.09 423.173L2055.44 418.891V308.42H2176V761.436H2053.73V652.678L2081.09 650.109C2076.54 666.095 2069.12 681.223 2058.86 695.496C2048.6 709.769 2035.77 722.615 2020.38 734.033C2005.56 744.88 1988.74 753.729 1969.94 760.58C1951.12 766.86 1931.17 770 1910.08 770ZM1943.42 664.667C1966.23 664.667 1986.19 659.244 2003.28 648.396C2020.38 637.549 2033.49 622.42 2042.62 603.009C2052.3 583.028 2057.15 559.906 2057.15 533.644C2057.15 507.953 2052.3 485.402 2042.62 465.991C2033.49 446.58 2020.38 431.451 2003.28 420.604C1986.19 409.186 1966.23 403.476 1943.42 403.476C1921.2 403.476 1901.53 409.186 1884.43 420.604C1867.9 431.451 1854.78 446.58 1845.1 465.991C1835.41 485.402 1830.56 507.953 1830.56 533.644C1830.56 559.906 1835.41 583.028 1845.1 603.009C1854.78 622.42 1867.9 637.549 1884.43 648.396C1901.53 659.244 1921.2 664.667 1943.42 664.667Z" fill="black"/>
<path d="M2299 761V128H2420V761H2299Z" fill="black"/>
<path d="M2545 761V128H2666V761H2545Z" fill="black"/>
</g>
<defs>
<clipPath id="clip0_243_8">
<rect width="2666" height="890" fill="white"/>
</clipPath>
</defs>
</svg>
